<svg width="24" height="24" viewBox="0 0 24 24" fill="none" xmlns="http://www.w3.org/2000/svg">
  <path fill-rule="evenodd" clip-rule="evenodd"
    d="M11.7073 3.99785C11.7073 2.88058 12.6194 2 13.7073 2C14.7953 2 15.7073 2.88058 15.7073 3.99785V4.90011H18.2444L24 12.677V20.0666H20.9562C20.6138 21.1927 19.5638 22 18.3415 22C17.1191 22 16.0691 21.1927 15.7268 20.0666H8.27327C7.93094 21.1927 6.88091 22 5.65857 22C4.43622 22 3.38619 21.1927 3.04386 20.0666H0V4.90011H11.7073V3.99785ZM13.7073 3.57895C13.4504 3.57895 13.2683 3.78252 13.2683 3.99785V4.90011H14.1463V3.99785C14.1463 3.78252 13.9643 3.57895 13.7073 3.57895ZM1.56098 6.47905V18.4876H3.04386C3.3862 17.3616 4.43622 16.5542 5.65857 16.5542C6.88091 16.5542 7.93094 17.3616 8.27327 18.4876H15.7268C16.0691 17.3616 17.1191 16.5542 18.3415 16.5542C19.5638 16.5542 20.6138 17.3616 20.9562 18.4876H22.439V13.7293H14.1463V7.31686H18.083L17.4629 6.47905H1.56098ZM15.7073 8.89581V12.1504H21.6602L19.2515 8.89581H15.7073ZM5.65857 18.1332C4.99817 18.1332 4.48784 18.662 4.48784 19.2771C4.48784 19.8922 4.99817 20.4211 5.65857 20.4211C6.31896 20.4211 6.8293 19.8922 6.8293 19.2771C6.8293 18.662 6.31896 18.1332 5.65857 18.1332ZM18.3415 18.1332C17.6811 18.1332 17.1707 18.662 17.1707 19.2771C17.1707 19.8922 17.6811 20.4211 18.3415 20.4211C19.0019 20.4211 19.5122 19.8922 19.5122 19.2771C19.5122 18.662 19.0019 18.1332 18.3415 18.1332ZM6.39007 7.90272H7.85348V10.1986H10.0486V11.7293H7.85348V14.0252H6.39007V11.7293H4.19495V10.1986H6.39007V7.90272Z"
    fill="#2D3748" />
</svg>
