<svg width="24" height="24" viewBox="0 0 24 24" fill="none" xmlns="http://www.w3.org/2000/svg">
  <path fill-rule="evenodd" clip-rule="evenodd"
    d="M5.78502 11.609C5.8704 11.6917 5.98623 11.7382 6.10705 11.7383C6.19712 11.7382 6.28515 11.7123 6.36001 11.6639C6.43488 11.6154 6.49323 11.5466 6.52768 11.4661C6.56214 11.3856 6.57117 11.297 6.55362 11.2115C6.53607 11.1261 6.49273 11.0476 6.42908 10.9859L3.56104 8.21131H15.2215C16.551 8.21131 17.826 8.72223 18.766 9.63167C19.7061 10.5411 20.2342 11.7746 20.2342 13.0607C20.2342 14.3469 19.7061 15.5804 18.766 16.4898C17.826 17.3993 16.551 17.9102 15.2215 17.9102H5.49984C5.37898 17.9102 5.26308 17.9566 5.17761 18.0393C5.09215 18.122 5.04414 18.2341 5.04414 18.351C5.04414 18.468 5.09215 18.5801 5.17761 18.6628C5.26308 18.7454 5.37898 18.7919 5.49984 18.7919H15.2215C16.7927 18.7919 18.2995 18.1881 19.4105 17.1133C20.5215 16.0385 21.1456 14.5807 21.1456 13.0607C21.1456 11.5407 20.5215 10.083 19.4105 9.00821C18.2995 7.93341 16.7927 7.32959 15.2215 7.32959H3.56133L6.42908 4.55526C6.47385 4.5149 6.50976 4.46623 6.53467 4.41216C6.55958 4.35808 6.57297 4.2997 6.57405 4.24051C6.57513 4.18131 6.56387 4.12251 6.54095 4.06762C6.51803 4.01272 6.48392 3.96286 6.44065 3.92099C6.39737 3.87913 6.34583 3.84613 6.28908 3.82396C6.23234 3.80178 6.17156 3.79089 6.11038 3.79194C6.04919 3.79298 5.98885 3.80594 5.93295 3.83004C5.87705 3.85413 5.82674 3.88887 5.78502 3.93219L2.14648 7.45219"
    fill="#2D3748" />
  <path
    d="M6.10705 11.7383L6.10671 12.1383H6.10739L6.10705 11.7383ZM5.78502 11.609L5.48404 11.8724L5.49489 11.8848L5.50672 11.8963L5.78502 11.609ZM6.55362 11.2115L6.16179 11.292L6.16179 11.292L6.55362 11.2115ZM6.42908 10.9859L6.70738 10.6986L6.7072 10.6984L6.42908 10.9859ZM3.56104 8.21131V7.81131H2.57229L3.28292 8.49879L3.56104 8.21131ZM18.766 9.63167L19.0442 9.34419L18.766 9.63167ZM18.766 16.4898L18.4879 16.2023L18.766 16.4898ZM19.4105 17.1133L19.1324 16.8258L19.4105 17.1133ZM19.4105 9.00821L19.1324 9.29569L19.4105 9.00821ZM3.56133 7.32959L3.28321 7.0421L2.57257 7.72959H3.56133V7.32959ZM6.42908 4.55526L6.16109 4.25798L6.15096 4.26778L6.42908 4.55526ZM6.53467 4.41216L6.17135 4.24482L6.17135 4.24482L6.53467 4.41216ZM6.57405 4.24051L6.97398 4.2478V4.2478L6.57405 4.24051ZM6.54095 4.06762L6.17183 4.22173L6.17183 4.22173L6.54095 4.06762ZM6.44065 3.92099L6.71877 3.63351L6.71877 3.63351L6.44065 3.92099ZM6.28908 3.82396L6.43467 3.45139L6.43467 3.45139L6.28908 3.82396ZM6.11038 3.79194L6.10355 3.392L6.11038 3.79194ZM5.93295 3.83004L6.09128 4.19736L5.93295 3.83004ZM5.78502 3.93219L6.06331 4.21985L6.07311 4.20968L5.78502 3.93219ZM2.14648 7.45219L1.86836 7.1647L1.59486 7.4293L1.8455 7.71565L2.14648 7.45219ZM6.10739 11.3383C6.08843 11.3383 6.07281 11.3309 6.06332 11.3217L5.50672 11.8963C5.66798 12.0525 5.88403 12.1381 6.10671 12.1383L6.10739 11.3383ZM6.1427 11.3281C6.13316 11.3342 6.12061 11.3383 6.10671 11.3383L6.10739 12.1383C6.27363 12.1382 6.43713 12.0904 6.57733 11.9997L6.1427 11.3281ZM6.15995 11.3087C6.15739 11.3147 6.15211 11.322 6.1427 11.3281L6.57733 11.9997C6.71765 11.9089 6.82907 11.7785 6.89542 11.6235L6.15995 11.3087ZM6.16179 11.292C6.16287 11.2973 6.16245 11.3029 6.15995 11.3087L6.89542 11.6235C6.96184 11.4683 6.97946 11.2968 6.94544 11.1311L6.16179 11.292ZM6.15078 11.2732C6.15761 11.2798 6.16069 11.2866 6.16179 11.292L6.94544 11.1311C6.91144 10.9655 6.82785 10.8153 6.70738 10.6986L6.15078 11.2732ZM3.28292 8.49879L6.15096 11.2734L6.7072 10.6984L3.83917 7.92382L3.28292 8.49879ZM15.2215 7.81131H3.56104V8.61131H15.2215V7.81131ZM19.0442 9.34419C18.0281 8.36126 16.6529 7.81131 15.2215 7.81131V8.61131C16.4491 8.61131 17.6238 9.08319 18.4879 9.91916L19.0442 9.34419ZM20.6342 13.0607C20.6342 11.6641 20.0606 10.3275 19.0442 9.34419L18.4879 9.91916C19.3516 10.7547 19.8342 11.885 19.8342 13.0607H20.6342ZM19.0442 16.7773C20.0606 15.7939 20.6342 14.4573 20.6342 13.0607H19.8342C19.8342 14.2365 19.3516 15.3668 18.4879 16.2023L19.0442 16.7773ZM15.2215 18.3102C16.6529 18.3102 18.0281 17.7602 19.0442 16.7773L18.4879 16.2023C17.6238 17.0383 16.4491 17.5102 15.2215 17.5102V18.3102ZM5.49984 18.3102H15.2215V17.5102H5.49984V18.3102ZM5.45574 18.3268C5.46524 18.3176 5.48087 18.3102 5.49984 18.3102V17.5102C5.27709 17.5102 5.06091 17.5957 4.89949 17.7518L5.45574 18.3268ZM5.44414 18.351C5.44414 18.3446 5.44668 18.3355 5.45574 18.3268L4.89949 17.7518C4.73763 17.9084 4.64414 18.1237 4.64414 18.351H5.44414ZM5.45574 18.3753C5.44668 18.3665 5.44414 18.3575 5.44414 18.351H4.64414C4.64414 18.5784 4.73763 18.7937 4.89949 18.9503L5.45574 18.3753ZM5.49984 18.3919C5.48087 18.3919 5.46524 18.3845 5.45574 18.3753L4.89949 18.9503C5.06091 19.1064 5.27709 19.1919 5.49984 19.1919V18.3919ZM15.2215 18.3919H5.49984V19.1919H15.2215V18.3919ZM19.1324 16.8258C18.0973 17.8271 16.6908 18.3919 15.2215 18.3919V19.1919C16.8946 19.1919 18.5017 18.549 19.6886 17.4008L19.1324 16.8258ZM20.7456 13.0607C20.7456 14.4703 20.167 15.8249 19.1324 16.8258L19.6886 17.4008C20.876 16.252 21.5456 14.6912 21.5456 13.0607H20.7456ZM19.1324 9.29569C20.167 10.2966 20.7456 11.6512 20.7456 13.0607H21.5456C21.5456 11.4303 20.876 9.86943 19.6886 8.72072L19.1324 9.29569ZM15.2215 7.72959C16.6908 7.72959 18.0973 8.29437 19.1324 9.29569L19.6886 8.72072C18.5017 7.57244 16.8946 6.92959 15.2215 6.92959V7.72959ZM3.56133 7.72959H15.2215V6.92959H3.56133V7.72959ZM6.15096 4.26778L3.28321 7.0421L3.83945 7.61708L6.7072 4.84275L6.15096 4.26778ZM6.17135 4.24482C6.16943 4.24899 6.16624 4.25367 6.16125 4.25816L6.6969 4.85237C6.78146 4.77614 6.85009 4.68348 6.89799 4.57949L6.17135 4.24482ZM6.17411 4.23321C6.17405 4.23678 6.17325 4.24069 6.17135 4.24482L6.89798 4.57949C6.9459 4.47546 6.97189 4.36262 6.97398 4.2478L6.17411 4.23321ZM6.17183 4.22173C6.17353 4.22579 6.17418 4.22964 6.17411 4.23321L6.97398 4.2478C6.97607 4.13298 6.95422 4.01924 6.91007 3.9135L6.17183 4.22173ZM6.16252 4.20848C6.1672 4.21301 6.17013 4.21764 6.17183 4.22173L6.91007 3.91351C6.86594 3.8078 6.80063 3.71271 6.71877 3.63351L6.16252 4.20848ZM6.1435 4.19652C6.15146 4.19963 6.15782 4.20393 6.16253 4.20848L6.71877 3.63351C6.63693 3.55434 6.54019 3.49262 6.43467 3.45139L6.1435 4.19652ZM6.1172 4.19188C6.12653 4.19172 6.13552 4.1934 6.1435 4.19652L6.43467 3.45139C6.32917 3.41016 6.2166 3.39007 6.10355 3.392L6.1172 4.19188ZM6.09128 4.19736C6.09903 4.19402 6.10788 4.19204 6.1172 4.19188L6.10355 3.392C5.9905 3.39393 5.87866 3.41785 5.77461 3.46271L6.09128 4.19736ZM6.07311 4.20968C6.07752 4.2051 6.08356 4.20069 6.09128 4.19736L5.77461 3.46271C5.67053 3.50757 5.57596 3.57264 5.49692 3.6547L6.07311 4.20968ZM2.42461 7.73968L6.06314 4.21967L5.5069 3.6447L1.86836 7.1647L2.42461 7.73968ZM1.8455 7.71565L5.48404 11.8724L6.086 11.3455L2.44747 7.18873L1.8455 7.71565Z"
    fill="#2D3748" />
</svg>
