<svg width="78" height="78" viewBox="0 0 78 78" fill="none" xmlns="http://www.w3.org/2000/svg">
  <path
    d="M78 43.5488H52.9117C51.8305 43.5488 51.2899 44.8531 52.0531 45.6165L69.7962 63.3669L63.3735 69.7929L45.6618 52.0742C44.8986 51.3107 43.5949 51.8514 43.5949 52.933V78H34.5007V52.933C34.5007 51.8514 33.197 51.3107 32.4338 52.0742L14.627 69.8245L8.20384 63.3986L25.9471 45.6484C26.7102 44.8849 26.1696 43.5807 25.0885 43.5807H0V34.4828H25.0885C26.1696 34.4828 26.7102 33.1786 25.9471 32.4151L8.20384 14.6329L14.627 8.20714L32.3384 25.9257C33.1016 26.6892 34.4053 26.1484 34.4053 25.0669V0H43.4995V25.0669C43.4995 26.1484 44.8032 26.6892 45.5664 25.9257L63.278 8.20714L69.7962 14.6329L52.0531 32.3833C51.2899 33.1467 51.8305 34.451 52.9117 34.451H78V43.5488Z"
    fill="#FF6D6D" />
</svg>
