<svg width="24" height="24" viewBox="0 0 24 24" fill="none" xmlns="http://www.w3.org/2000/svg">
  <path fill-rule="evenodd" clip-rule="evenodd"
    d="M2.10989 4C1.55489 4 1.01982 4.23135 0.623111 4.6479C0.225911 5.06496 0 5.634 0 6.23077V17.7692C0 18.366 0.225911 18.935 0.623111 19.3521C1.01982 19.7686 1.55489 20 2.10989 20H15.2967C15.8517 20 16.3868 19.7686 16.7835 19.3521C17.1807 18.935 17.4066 18.366 17.4066 17.7692V16.8697L20.6016 19.4841C20.9131 19.7381 21.2847 19.8943 21.674 19.9367C22.0633 19.979 22.4566 19.9062 22.8098 19.7254C23.163 19.5445 23.4629 19.2623 23.6741 18.9088C23.8853 18.5551 23.9987 18.1449 24 17.7247L24 17.7231L24 6.27692L24 6.2753C23.9987 5.85513 23.8853 5.44488 23.6741 5.0912C23.4629 4.73768 23.163 4.45548 22.8098 4.27464C22.4566 4.09385 22.0633 4.02097 21.674 4.06334C21.2847 4.10572 20.9124 4.26242 20.6009 4.51641L17.4066 7.13033V6.23077C17.4066 5.634 17.1807 5.06496 16.7835 4.6479C16.3868 4.23135 15.8517 4 15.2967 4H2.10989ZM2.04259 6.18186C2.05805 6.16563 2.082 6.15385 2.10989 6.15385H15.2967C15.3246 6.15385 15.3485 6.16563 15.364 6.18186C15.379 6.19757 15.3846 6.2155 15.3846 6.23077V17.7692C15.3846 17.7845 15.379 17.8024 15.364 17.8181C15.3485 17.8344 15.3246 17.8462 15.2967 17.8462H2.10989C2.082 17.8462 2.05805 17.8344 2.04259 17.8181C2.02762 17.8024 2.02198 17.7845 2.02198 17.7692V6.23077C2.02198 6.2155 2.02762 6.19757 2.04259 6.18186ZM21.8789 6.2033C21.8982 6.20107 21.9171 6.20468 21.9333 6.21286C21.9494 6.22098 21.9609 6.23262 21.968 6.24447C21.9749 6.25598 21.9779 6.26782 21.978 6.27877V17.7674C21.9779 17.7783 21.9749 17.7902 21.968 17.8017C21.9609 17.8135 21.9494 17.8252 21.9333 17.8333C21.9171 17.8415 21.8982 17.8451 21.8789 17.8429C21.8597 17.8406 21.8423 17.8324 21.8295 17.8218L17.4066 14.1642V9.83764L21.8273 6.22614L21.8301 6.22387C21.8429 6.21326 21.8597 6.20552 21.8789 6.2033Z"
    fill="#2D3748" />
</svg>
