<svg width="16" height="16" viewBox="0 0 16 16" fill="none" xmlns="http://www.w3.org/2000/svg">
  <path fill-rule="evenodd" clip-rule="evenodd"
    d="M14.5668 1.2036C14.8381 0.900064 14.8042 0.440752 14.4912 0.177692C14.1782 -0.0853682 13.7045 -0.0525602 13.4332 0.250971L10.6332 3.38392C10.4936 3.33737 10.3468 3.31312 10.1978 3.31312H1.40659C1.03659 3.31312 0.67988 3.46268 0.415407 3.73196C0.150607 4.00157 0 4.36944 0 4.75523V12.2144C0 12.6002 0.150608 12.9681 0.415407 13.2377C0.67988 13.507 1.03659 13.6565 1.40659 13.6565H1.452L0.433245 14.7964C0.161964 15.0999 0.195797 15.5592 0.508814 15.8223C0.821831 16.0854 1.2955 16.0526 1.56678 15.749L3.43695 13.6565H10.1978C10.5678 13.6565 10.9245 13.507 11.189 13.2377C11.4538 12.9681 11.6044 12.6002 11.6044 12.2144V11.6329L13.7344 13.323C13.942 13.4872 14.1898 13.5882 14.4493 13.6156C14.7089 13.643 14.9711 13.5959 15.2065 13.479C15.442 13.3621 15.6419 13.1796 15.7827 12.9511C15.9235 12.7225 15.9992 12.4573 16 12.1856L16 12.1846L16 4.78506L16 4.78401C15.9992 4.51239 15.9235 4.24718 15.7827 4.01854C15.6419 3.79 15.442 3.60757 15.2065 3.49066C14.9711 3.37379 14.7089 3.32667 14.4493 3.35407C14.1898 3.38146 13.9416 3.48276 13.734 3.64696L11.6044 5.33676V4.75523C11.6044 4.68143 11.5989 4.60828 11.5881 4.53636L14.5668 1.2036ZM9.452 4.7055H1.40659C1.388 4.7055 1.37203 4.71311 1.36173 4.72361C1.35175 4.73377 1.34799 4.74536 1.34799 4.75523V12.2144C1.34799 12.2243 1.35175 12.2359 1.36173 12.246C1.37203 12.2565 1.388 12.2641 1.40659 12.2641H2.69645L9.452 4.7055ZM4.68139 12.2641L10.2564 6.02638V12.2144C10.2564 12.2243 10.2526 12.2359 10.2427 12.246C10.2324 12.2565 10.2164 12.2641 10.1978 12.2641H4.68139ZM14.6222 4.74365C14.6114 4.73836 14.5988 4.73603 14.5859 4.73747C14.5731 4.73891 14.5619 4.74391 14.5534 4.75077L14.5516 4.75223L11.6044 7.08694V9.88389L14.553 12.2484C14.5615 12.2553 14.5731 12.2606 14.5859 12.262C14.5988 12.2635 14.6114 12.2611 14.6222 12.2558C14.6329 12.2506 14.6406 12.2431 14.6453 12.2354C14.6499 12.228 14.6519 12.2203 14.652 12.2132V4.78626C14.6519 4.77918 14.6499 4.77153 14.6453 4.76409C14.6406 4.75642 14.6329 4.7489 14.6222 4.74365Z"
    fill="#2D3748" />
</svg>
