<svg width="24" height="24" viewBox="0 0 24 24" fill="none" xmlns="http://www.w3.org/2000/svg">
  <path
    d="M16.4257 7.08316C16.2611 7.08103 16.0944 7.12896 15.9516 7.23101C15.5976 7.48212 15.521 7.96503 15.777 8.31037L18.6573 11.2289H10.4073C9.97036 11.2289 9.61718 11.5751 9.61718 12.0016C9.61718 12.4281 9.97036 12.7742 10.4073 12.7742H18.6572L15.777 15.6912C15.521 16.0366 15.5984 16.5195 15.9516 16.7706C16.0923 16.8703 16.2543 16.9182 16.4163 16.9182C16.6604 16.9182 16.9014 16.8077 17.0547 16.6006L20.8401 12.4673C20.9403 12.3378 20.9998 12.1765 20.9998 12.0016C20.9998 11.822 20.937 11.6567 20.8319 11.5255L17.0547 7.40099C16.9027 7.19638 16.6663 7.08627 16.4257 7.08316Z"
    fill="#2D3748" />
  <path fill-rule="evenodd" clip-rule="evenodd"
    d="M2.7998 3.77271C2.7998 3.23169 3.24664 2.80005 3.78994 2.80005H14.3658C14.9091 2.80005 15.3559 3.2317 15.3559 3.77271C15.3559 4.31388 14.9082 4.74536 14.3658 4.74536H4.78013V19.2547H14.3658C14.9091 19.2547 15.3559 19.6863 15.3559 20.2273C15.3559 20.7684 14.9082 21.2001 14.3658 21.2001H3.78994C3.24661 21.2001 2.7998 20.7683 2.7998 20.2273V3.77271ZM15.8357 7.06801C16.0147 6.94024 16.2233 6.88052 16.4283 6.88317C16.7239 6.887 17.0171 7.02088 17.2087 7.27307L20.9883 11.4002C21.1205 11.5652 21.1998 11.7744 21.1998 12.0016C21.1998 12.2228 21.1244 12.4267 20.9983 12.5897L20.9932 12.5963L17.2088 16.7284C17.0152 16.984 16.7162 17.1182 16.4163 17.1182C16.2145 17.1182 16.0118 17.0584 15.836 16.9338C15.3922 16.6183 15.2931 16.0082 15.6163 15.5721L15.6247 15.5607L18.1786 12.9742H10.4073C9.86402 12.9742 9.41718 12.5426 9.41718 12.0016C9.41718 11.4606 9.86401 11.0289 10.4073 11.0289H18.179L15.6247 8.44081L15.6163 8.42947C15.2933 7.99368 15.3909 7.38369 15.8357 7.06801ZM16.4231 7.28314C16.299 7.28154 16.1744 7.3176 16.0679 7.39374C15.8085 7.57775 15.7503 7.92665 15.93 8.18067L19.1357 11.4289H10.4073C10.0767 11.4289 9.81718 11.6896 9.81718 12.0016C9.81718 12.3136 10.0767 12.5742 10.4073 12.5742H19.1357L15.93 15.8209C15.7505 16.0747 15.8084 16.4234 16.0675 16.6076C16.1729 16.6822 16.2941 16.7182 16.4163 16.7182C16.6012 16.7182 16.7808 16.6345 16.894 16.4816L16.9002 16.4732L20.6866 12.3388C20.7581 12.2438 20.7998 12.1275 20.7998 12.0016C20.7998 11.8718 20.7554 11.752 20.6796 11.6553L16.9003 7.5285L16.8941 7.52026C16.7816 7.36881 16.6053 7.2855 16.4231 7.28314Z"
    fill="#2D3748" />
</svg>
