<svg width="24" height="25" viewBox="0 0 24 25" fill="none" xmlns="http://www.w3.org/2000/svg">
  <path
    d="M11.225 1.3977C11.225 0.979841 11.5498 0.599976 12 0.599976C12.4502 0.599976 12.7749 0.979842 12.7749 1.3977V3.24904C12.7749 3.6669 12.4502 4.04677 12 4.04677C11.5498 4.04677 11.225 3.6669 11.225 3.24904V1.3977Z"
    fill="#2D3748" />
  <path
    d="M15.4072 1.97087C15.5632 1.57068 16.0182 1.35314 16.4309 1.53481C16.8316 1.71118 16.9967 2.17766 16.8453 2.56611L16.1775 4.2765C16.0599 4.57802 15.7755 4.77683 15.4585 4.77683C15.355 4.77683 15.2513 4.75529 15.1538 4.71248C14.7531 4.53615 14.5881 4.06968 14.7395 3.68118L15.4072 1.97087Z"
    fill="#2D3748" />
  <path
    d="M8.59258 1.97079C8.43644 1.57016 7.98174 1.35365 7.5693 1.53455C7.16854 1.71087 7.00302 2.17729 7.15442 2.56579L7.82232 4.27642C7.93994 4.57786 8.22437 4.77675 8.54136 4.77675C8.6448 4.77675 8.74827 4.75531 8.84575 4.71249C9.24651 4.53617 9.41183 4.06983 9.26043 3.68133L8.59258 1.97079Z"
    fill="#2D3748" />
  <path
    d="M3.81881 4.19246C4.12317 3.8696 4.62676 3.8696 4.93111 4.19246L6.16504 5.50158C6.45664 5.81093 6.4569 6.30354 6.16487 6.61293C6.01566 6.77112 5.8143 6.85489 5.60889 6.85489C5.40339 6.85489 5.20197 6.77105 5.05274 6.61275L3.81881 5.30363C3.52727 4.99434 3.52696 4.50186 3.81881 4.19246Z"
    fill="#2D3748" />
  <path
    d="M20.1809 5.30381C20.4729 4.99441 20.4727 4.50181 20.181 4.19246C19.8767 3.86961 19.3731 3.86962 19.0687 4.19246L17.8345 5.50156C17.5426 5.81097 17.5429 6.30346 17.8344 6.61275C17.9837 6.77105 18.1851 6.85489 18.3906 6.85489C18.5961 6.85489 18.7975 6.77104 18.9467 6.61275L20.1809 5.30381Z"
    fill="#2D3748" />
  <path fill-rule="evenodd" clip-rule="evenodd"
    d="M6.04526 9.07343C6.23571 7.15177 7.62633 5.59998 9.38845 5.59998H14.61C16.3703 5.59998 17.7619 7.15138 17.9561 9.0726L17.9563 9.07434L18.9762 18.4085H19.6185C20.1125 18.4085 20.4 18.8585 20.4 19.2621V22.5464C20.4 22.9499 20.1125 23.4 19.6185 23.4H4.38146C3.88746 23.4 3.59998 22.9499 3.59998 22.5464V19.2621C3.59998 18.8585 3.88746 18.4085 4.38146 18.4085H5.02386L6.04526 9.07343ZM9.38845 7.30722C8.53039 7.30722 7.71445 8.08836 7.59894 9.26042L7.59851 9.26474L6.59688 18.4085H17.4031L16.4026 9.26164C16.2847 8.08895 15.4674 7.30722 14.61 7.30722H9.38845ZM5.16294 20.1157V21.6927H18.837V20.1157H5.16294Z"
    fill="#2D3748" />
</svg>
