<svg width="22" height="22" viewBox="0 0 22 22" fill="none" xmlns="http://www.w3.org/2000/svg">
  <path
    d="M20.625 10.9976C20.625 10.9974 20.625 10.9971 20.625 10.9969C20.6242 8.42704 19.6231 6.01113 17.8058 4.19395C15.9879 2.37611 13.5708 1.375 11 1.375C8.4286 1.375 6.0114 2.37615 4.19368 4.19395C3.68119 4.70647 3.23368 5.26663 2.85517 5.86447C2.81112 5.90406 2.77848 5.95588 2.76251 6.01468C1.85839 7.5027 1.375 9.21402 1.375 10.9999C1.375 11.0004 1.375 11.0008 1.375 11.0012C1.375 11.0013 1.375 11.0014 1.375 11.0015C1.375 11.0017 1.37504 11.0019 1.37504 11.002C1.37559 13.5722 2.37654 15.9883 4.19368 17.8057C6.01152 19.6238 8.42868 20.625 11 20.625C13.5708 20.625 15.9878 19.6237 17.8058 17.8057C19.6238 15.9877 20.625 13.5707 20.625 10.9999C20.625 10.9993 20.625 10.9987 20.625 10.9981C20.625 10.9979 20.625 10.9978 20.625 10.9976ZM18.7965 15.4925L15.9804 15.493C16.3722 14.2147 16.5918 12.7911 16.6189 11.3108L19.9943 11.3101C19.9426 12.829 19.5132 14.2537 18.7965 15.4925ZM2.00579 11.3137L5.37975 11.3131C5.407 12.7932 5.62691 14.2166 6.01905 15.4948L3.20506 15.4953C2.48805 14.2568 2.05815 12.8324 2.00579 11.3137ZM3.26172 6.40897L6.04947 6.40827C5.63835 7.71171 5.40755 9.17009 5.37971 10.6883L2.00568 10.689C2.0589 9.12995 2.51047 7.6704 3.26172 6.40897ZM19.9942 10.6854L16.6188 10.6861C16.5908 9.16763 16.3599 7.70917 15.9487 6.40585L18.736 6.40514C19.488 7.6665 19.9403 9.12613 19.9942 10.6854ZM15.9939 10.6862L11.3124 10.6871V6.40698L15.2925 6.406C15.7227 7.69465 15.9648 9.15662 15.9939 10.6862ZM11.3124 5.78224V2.01798C12.4984 2.1519 13.6145 3.04556 14.4834 4.56954C14.6987 4.94715 14.8925 5.35261 15.0641 5.7813L11.3124 5.78224ZM10.6876 2.01798V5.78239L6.93418 5.78333C7.10603 5.35394 7.30024 4.94782 7.51593 4.56962C8.38518 3.04556 9.50156 2.1519 10.6876 2.01798ZM10.6876 6.40714V10.6873L6.00461 10.6882C6.03362 9.15881 6.27563 7.69688 6.70576 6.40811L10.6876 6.40714ZM6.00465 11.313L10.6876 11.312V15.494L6.67363 15.4947C6.26356 14.2301 6.03299 12.8035 6.00465 11.313ZM10.6876 16.1187V19.982C9.5016 19.8481 8.38522 18.9543 7.51597 17.4301C7.28415 17.0236 7.07736 16.5846 6.89631 16.1194L10.6876 16.1187ZM11.3124 19.982V16.1186L15.1033 16.1179C14.9222 16.5837 14.7153 17.0232 14.4833 17.4301C13.6144 18.9543 12.4983 19.8481 11.3124 19.982ZM11.3124 15.4939V11.3119L15.994 11.311C15.9658 12.8017 15.7356 14.2285 15.3259 15.4932L11.3124 15.4939ZM18.3282 5.78052L15.7334 5.78114C15.53 5.23957 15.2938 4.72978 15.0261 4.26009C14.573 3.46546 14.0524 2.82389 13.4853 2.34893C15.4615 2.91756 17.161 4.14647 18.3282 5.78052ZM8.51435 2.34905C7.94712 2.82401 7.42648 3.46554 6.97331 4.26009C6.70502 4.73045 6.46848 5.24106 6.26485 5.78349L3.66917 5.78411C4.83638 4.14834 6.53677 2.91815 8.51435 2.34905ZM3.60236 16.12L6.22893 16.1195C6.44044 16.6981 6.68917 17.2413 6.97331 17.7396C7.42656 18.5343 7.94728 19.176 8.51462 19.651C6.49858 19.0709 4.77105 17.8035 3.60236 16.12ZM13.485 19.6511C14.0523 19.1761 14.5729 18.5344 15.0261 17.7395C15.3104 17.2408 15.5593 16.697 15.7708 16.1178L18.3995 16.1173C17.2307 17.8022 15.5022 19.0708 13.485 19.6511Z"
    fill="#2D3748" stroke="#2D3748" stroke-width="0.5" />
</svg>
