<svg width="24" height="24" viewBox="0 0 24 24" fill="none" xmlns="http://www.w3.org/2000/svg">
  <path fill-rule="evenodd" clip-rule="evenodd"
    d="M11.4679 1.6713C11.7612 1.37617 12.2386 1.37617 12.5319 1.6713L22.332 11.5336C22.6039 11.8072 22.6239 12.2424 22.3783 12.5399L22.1568 12.808C21.8745 13.1498 21.359 13.1735 21.0465 12.859L20.7273 12.5377V21.7998C20.7273 22.214 20.3915 22.5498 19.9773 22.5498H13.9729C13.5587 22.5498 13.2229 22.214 13.2229 21.7998V15.7196C13.2229 14.8993 12.6262 14.3221 12.0052 14.3221C11.3772 14.3221 10.7781 14.9019 10.7781 15.73V21.7998C10.7781 22.214 10.4423 22.5498 10.0281 22.5498H4.02374C3.60953 22.5498 3.27374 22.214 3.27374 21.7998V12.5365L2.95329 12.859C2.64084 13.1735 2.12526 13.1498 1.84296 12.808L1.62155 12.5399C1.37593 12.2424 1.39594 11.8072 1.66783 11.5336L11.4679 1.6713ZM5.08271 10.7157V20.6687H8.96911V15.73C8.96911 13.9675 10.2819 12.4409 12.0052 12.4409C13.7239 12.4409 15.0319 13.9623 15.0319 15.7196V20.6687H18.9183V10.7169L11.9999 3.75366L5.08271 10.7157Z"
    fill="#2D3748" />
</svg>
