<svg width="24" height="25" viewBox="0 0 24 25" fill="none" xmlns="http://www.w3.org/2000/svg">
  <path fill-rule="evenodd" clip-rule="evenodd"
    d="M7.7912 2.09854C7.68075 2.09854 7.5912 2.18808 7.5912 2.29854V8.69853C7.5912 9.30605 7.09872 9.79854 6.4912 9.79854H2.97499C2.86453 9.79854 2.77499 9.88808 2.77499 9.99854V22.2985C2.77499 22.409 2.86453 22.4985 2.97499 22.4985H7.39661C7.50707 22.4985 7.59661 22.409 7.59661 22.2985V18.2485C7.59661 17.2544 8.4025 16.4485 9.39661 16.4485H14.3534C15.3475 16.4485 16.1534 17.2544 16.1534 18.2485V22.2985C16.1534 22.409 16.2429 22.4985 16.3534 22.4985H20.775C20.8854 22.4985 20.975 22.409 20.975 22.2985V9.44854C20.975 9.33808 20.8854 9.24854 20.775 9.24854H17.2588C16.6513 9.24854 16.1588 8.75605 16.1588 8.14854V2.29854C16.1588 2.18808 16.0692 2.09854 15.9588 2.09854H7.7912ZM5.9912 2.29854C5.9912 1.30442 6.79709 0.498535 7.7912 0.498535H15.9588C16.9529 0.498535 17.7588 1.30442 17.7588 2.29854V7.64854H20.775C21.7691 7.64854 22.575 8.45442 22.575 9.44854V22.2985C22.575 23.2926 21.7691 24.0985 20.775 24.0985H16.3534C15.3593 24.0985 14.5534 23.2926 14.5534 22.2985V18.2485C14.5534 18.1381 14.4638 18.0485 14.3534 18.0485H9.39661C9.28615 18.0485 9.19661 18.1381 9.19661 18.2485V22.2985C9.19661 23.2926 8.39072 24.0985 7.39661 24.0985H2.97499C1.98088 24.0985 1.17499 23.2926 1.17499 22.2985V9.99854C1.17499 9.00443 1.98087 8.19854 2.97499 8.19854H5.9912V2.29854Z"
    fill="#2D3748" />
  <path fill-rule="evenodd" clip-rule="evenodd"
    d="M12.625 4.54515H11.125V6.79515H8.87499V8.29515H11.125V10.5451H12.625V8.29515H14.875V6.79515H12.625V4.54515Z"
    fill="#2D3748" />
  <path
    d="M11.047 12.7C11.047 12.3134 11.3604 12 11.747 12C12.1336 12 12.447 12.3134 12.447 12.7V13.9631C12.447 14.3497 12.1336 14.6631 11.747 14.6631C11.3604 14.6631 11.047 14.3497 11.047 13.9631V12.7Z"
    fill="#2D3748" />
  <path
    d="M14.147 12.7C14.147 12.3134 14.4604 12 14.847 12C15.2336 12 15.547 12.3134 15.547 12.7V13.9631C15.547 14.3497 15.2336 14.6631 14.847 14.6631C14.4604 14.6631 14.147 14.3497 14.147 13.9631V12.7Z"
    fill="#2D3748" />
  <path
    d="M17.2469 12.7C17.2469 12.3134 17.5603 12 17.9469 12C18.3335 12 18.6469 12.3134 18.6469 12.7V13.9631C18.6469 14.3497 18.3335 14.6631 17.9469 14.6631C17.5603 14.6631 17.2469 14.3497 17.2469 13.9631V12.7Z"
    fill="#2D3748" />
  <path
    d="M17.2469 17.2066C17.2469 16.82 17.5603 16.5066 17.9469 16.5066C18.3335 16.5066 18.6469 16.82 18.6469 17.2066V18.4697C18.6469 18.8563 18.3335 19.1697 17.9469 19.1697C17.5603 19.1697 17.2469 18.8563 17.2469 18.4697V17.2066Z"
    fill="#2D3748" />
  <path
    d="M7.94701 12.7C7.94701 12.3134 8.26041 12 8.64701 12C9.03361 12 9.34701 12.3134 9.34701 12.7V13.9631C9.34701 14.3497 9.03361 14.6631 8.64701 14.6631C8.26041 14.6631 7.94701 14.3497 7.94701 13.9631V12.7Z"
    fill="#2D3748" />
  <path
    d="M4.84703 12.7C4.84703 12.3134 5.16043 12 5.54703 12C5.93363 12 6.24703 12.3134 6.24703 12.7V13.9631C6.24703 14.3497 5.93363 14.6631 5.54703 14.6631C5.16043 14.6631 4.84703 14.3497 4.84703 13.9631V12.7Z"
    fill="#2D3748" />
  <path
    d="M4.84703 17.2066C4.84703 16.82 5.16043 16.5066 5.54703 16.5066C5.93363 16.5066 6.24703 16.82 6.24703 17.2066V18.4697C6.24703 18.8563 5.93363 19.1697 5.54703 19.1697C5.16043 19.1697 4.84703 18.8563 4.84703 18.4697V17.2066Z"
    fill="#2D3748" />
</svg>
