<svg width="16" height="16" viewBox="0 0 16 16" fill="none" xmlns="http://www.w3.org/2000/svg">
  <path
    d="M12.4827 6.10749C12.4827 6.90082 12.2064 7.83175 11.7323 8.82497C11.2629 9.80826 10.6285 10.793 9.98035 11.6777C9.33398 12.5599 8.68568 13.3267 8.19822 13.8735C8.12838 13.9518 8.06192 14.0256 7.99935 14.0943C7.93677 14.0256 7.87032 13.9518 7.80047 13.8735C7.31302 13.3267 6.66472 12.5599 6.01835 11.6777C5.37017 10.793 4.73583 9.80826 4.26643 8.82497C3.79228 7.83175 3.51602 6.90082 3.51602 6.10749C3.51602 3.55595 5.53919 1.51663 7.99935 1.51663C10.4595 1.51663 12.4827 3.55595 12.4827 6.10749Z"
    stroke="#2D3748" stroke-width="1.7" />
  <circle cx="8" cy="6" r="1.35" stroke="#2D3748" stroke-width="1.3" />
</svg>
