<svg width="24" height="24" viewBox="0 0 24 24" fill="none" xmlns="http://www.w3.org/2000/svg">
  <path
    d="M19.15 9.16129C19.15 10.4412 18.7071 11.9037 17.9829 13.4206C17.2635 14.9276 16.2958 16.4281 15.3143 17.7678C14.3346 19.105 13.353 20.266 12.6155 21.0931C12.3831 21.3539 12.1753 21.581 12 21.7695C11.8247 21.581 11.6169 21.3539 11.3845 21.0931C10.647 20.266 9.66537 19.105 8.68567 17.7678C7.70415 16.4281 6.73648 14.9276 6.01708 13.4206C5.29293 11.9037 4.85 10.4412 4.85 9.16129C4.85 5.1073 8.06708 1.85 12 1.85C15.9329 1.85 19.15 5.1073 19.15 9.16129Z"
    stroke="#2D3748" stroke-width="1.7" />
  <circle cx="12" cy="9" r="2.35" stroke="#2D3748" stroke-width="1.3" />
</svg>
