<svg width="24" height="24" viewBox="0 0 24 24" fill="none" xmlns="http://www.w3.org/2000/svg">
  <path fill-rule="evenodd" clip-rule="evenodd"
    d="M6.58587 17.4255C10.129 20.9671 14.0337 23 17.2876 23C19.267 23 20.5957 22.4489 21.7165 21.1749C21.8069 21.0846 21.8973 20.9852 21.9786 20.8949L22.06 20.8045C22.6836 20.0817 23 19.3499 23 18.6181C23 17.7598 22.4938 16.9647 21.4815 16.26L18.2547 14.0193L18.1915 13.9741C17.0526 13.2333 16.0726 13.1198 15.1778 14.0052L14.292 14.8906C14.0931 15.0713 13.9576 15.0442 13.8039 14.9448C13.1802 14.5563 11.9691 13.4812 11.2008 12.7132L10.9839 12.4964C10.1523 11.6561 9.46537 10.8249 9.08575 10.2377C8.98633 10.0479 8.96825 9.92143 9.18518 9.70459L10.089 8.79207C10.9477 7.88858 10.7707 6.86365 9.99343 5.74333L7.75185 2.51786L7.68858 2.42752C7.01068 1.48789 6.2424 1.00903 5.39277 1H5.35661C4.62449 1 3.86524 1.34333 3.11504 2.01191L2.83484 2.25585C1.55136 3.41232 1 4.74045 1 6.70103C1 9.97166 3.03369 13.8747 6.58587 17.4255ZM4.48891 3.62012C4.78718 3.35811 5.11257 3.21355 5.39277 3.21355C5.70008 3.21355 5.91701 3.33101 6.0797 3.59302L8.2309 6.81848L8.25801 6.86365C8.44782 7.17084 8.64286 7.26517 8.38978 7.51814L7.35938 8.54812C6.65436 9.29802 6.60917 10.2828 7.24187 11.1321C7.86554 11.9724 8.95921 13.2192 9.845 14.0865C10.7308 14.99 12.0775 16.1826 12.9091 16.797C13.7858 17.4475 14.7982 17.3843 15.5574 16.6253L16.5697 15.6134C16.8228 15.3875 16.8718 15.5552 17.1882 15.754L20.4692 17.9405C20.7042 18.1211 20.8036 18.3199 20.8036 18.609C20.8036 18.8891 20.659 19.2144 20.3969 19.5125L20.2161 19.7203C19.5111 20.5335 18.5349 20.9581 17.2966 20.9762H17.1972C14.6302 20.9762 11.1504 19.0969 8.08628 16.0431C4.94988 12.9261 2.96138 9.25791 3.01561 6.70103C3.04273 5.49938 3.47658 4.49651 4.28102 3.79179L4.34429 3.73758C4.36021 3.72484 4.37501 3.71211 4.39027 3.69898C4.41833 3.67485 4.44793 3.64938 4.48891 3.62012Z"
    fill="#2D3748" />
</svg>
