<svg width="24" height="24" viewBox="0 0 24 24" fill="none" xmlns="http://www.w3.org/2000/svg">
  <path fill-rule="evenodd" clip-rule="evenodd"
    d="M6.23331 2.58763C5.89999 2.3982 5.50155 2.41585 5.18308 2.56982L4.72967 2.78455C4.7173 2.79002 4.70543 2.79557 4.69406 2.80117H3.36071C2.93657 2.80117 2.4502 3.10005 2.4502 3.65849V7.91703C2.4502 8.62575 2.62864 9.29574 2.91088 9.92127L2.91684 9.93447L2.92348 9.94734C3.24084 10.5622 3.67285 11.1009 4.21421 11.5624C4.75531 12.0237 5.37809 12.3843 6.07742 12.6466L6.08185 12.6483C6.51997 12.8083 6.98233 12.9142 7.4459 12.9779V16.4341C7.4459 17.1428 7.62435 17.8128 7.90659 18.4383L7.91254 18.4515L7.91919 18.4644C8.23655 19.0793 8.66856 19.618 9.20992 20.0795C9.75101 20.5407 10.3738 20.9014 11.0731 21.1637L11.0797 21.1661C11.8151 21.4313 12.5742 21.55 13.3521 21.55C14.141 21.55 14.8944 21.4057 15.6093 21.1714L15.6203 21.1678L15.6311 21.1637C16.3304 20.9014 16.9532 20.5407 17.4943 20.0795C18.0357 19.618 18.4678 19.0793 18.7851 18.4644L18.789 18.4567C19.112 17.8059 19.2583 17.1289 19.2583 16.4341V12.9169C20.5401 12.5879 21.5502 11.5842 21.5502 10.2878C21.5502 8.67566 20.0595 7.52068 18.3993 7.52068C16.7391 7.52068 15.2485 8.67566 15.2485 10.2878C15.2485 11.5871 16.2379 12.5958 17.4631 12.9328V16.4561C17.4631 18.2464 15.7091 19.8573 13.3779 19.8573C11.0467 19.8573 9.29268 18.2464 9.29268 16.4561V12.9998C9.75626 12.9362 10.2186 12.8303 10.6567 12.6702L10.6612 12.6686C11.3605 12.4063 11.9833 12.0456 12.5244 11.5844C13.0657 11.1229 13.4978 10.5842 13.8152 9.96932L13.819 9.96154C14.142 9.31077 14.2884 8.63381 14.2884 7.93898V3.65849C14.2884 3.10005 13.802 2.80117 13.3779 2.80117H12.044L11.5683 2.57586C11.2383 2.39842 10.8484 2.41925 10.5362 2.57135L10.5205 2.579L10.5053 2.58763C10.236 2.74063 9.96951 3.0294 9.96951 3.46093V3.89995C9.96951 4.29529 10.2206 4.61148 10.5053 4.77325C10.6777 4.87126 10.8773 4.91093 11.0345 4.91093C11.2229 4.91093 11.3877 4.86879 11.543 4.78479L11.9832 4.57633C11.9955 4.57086 12.0074 4.56531 12.0188 4.55971H12.4931V7.96093C12.4931 9.75127 10.7391 11.3621 8.40792 11.3621C6.0767 11.3621 4.32273 9.75127 4.32273 7.96093V4.55971H4.72032L5.19671 4.78532C5.36398 4.87453 5.55347 4.91093 5.70406 4.91093C5.90091 4.91093 6.07199 4.86493 6.23331 4.77325C6.50255 4.62025 6.76908 4.33148 6.76908 3.89995V3.46093C6.76908 3.06559 6.51798 2.7494 6.23331 2.58763ZM17.0953 10.2878C17.0953 9.79254 17.5874 9.25727 18.3993 9.25727C19.2113 9.25727 19.7034 9.79254 19.7034 10.2878C19.7034 10.783 19.2113 11.3182 18.3993 11.3182C17.5874 11.3182 17.0953 10.783 17.0953 10.2878Z"
    fill="#2D3748" />
</svg>
