<svg width="24" height="24" viewBox="0 0 24 24" fill="none" xmlns="http://www.w3.org/2000/svg">
  <path fill-rule="evenodd" clip-rule="evenodd"
    d="M21.5873 3.92688C20.349 2.28865 18.8943 1.63129 17.5418 1.45358C16.2282 1.28098 15.0433 1.56612 14.3236 1.74767L14.1636 1.77729L14.1473 1.78126C13.5968 1.91543 12.611 2.02976 12.1768 2.06339C11.6877 2.02916 10.4576 1.91374 9.87847 1.77966L9.85673 1.77463L9.66194 1.74457L9.62306 1.73555C8.91028 1.57014 7.74526 1.29978 6.46011 1.46462C5.10809 1.63803 3.65216 2.28723 2.4127 3.92687L2.41056 3.92974C1.38863 5.29851 1.25608 6.63002 1.51402 7.79389C1.75537 8.88287 2.33691 9.80796 2.73428 10.4401L2.777 10.5081L2.82126 10.5746C2.93832 10.7506 3.03321 10.8932 3.10649 11.0201C3.1847 11.1555 3.20288 11.215 3.2056 11.2239C3.20594 11.2251 3.20604 11.2254 3.20598 11.225L3.20913 11.2483L3.21411 11.2714C3.3241 11.7806 3.29969 12.3557 3.26629 13.129C3.20059 14.2551 3.13208 15.7028 3.53884 17.5861C3.7663 18.6392 4.21088 19.6567 4.77176 20.4925C5.32655 21.3193 6.02912 22.0182 6.80116 22.3665L6.81028 22.3706L6.81954 22.3744C7.16367 22.5161 7.50207 22.6 7.85971 22.6C8.20177 22.6 8.48466 22.5072 8.72879 22.3941C9.59305 21.994 9.98168 21.2743 10.1442 20.5901C10.2909 19.9728 10.265 19.3362 10.2484 18.9287L10.2457 18.8601V18.572C10.2457 16.8932 10.5597 15.6681 11.0918 14.8376C11.5303 14.1612 11.8438 14.049 11.8775 14.0401L11.9157 14.03H11.949L11.9571 14.0338L12.0252 14.0478C12.1432 14.072 12.4957 14.1756 12.9033 14.8298L12.9075 14.8364C13.44 15.6669 13.7543 16.8929 13.7543 18.5725V18.8498C13.722 19.2747 13.6847 19.9408 13.8446 20.5941C14.0125 21.2802 14.4109 21.9958 15.2713 22.3941C15.5154 22.5072 15.7983 22.6 16.1403 22.6C16.498 22.6 16.8364 22.5161 17.1805 22.3744L17.1898 22.3706L17.1989 22.3665C17.9709 22.0182 18.6735 21.3193 19.2283 20.4925C19.7892 19.6567 20.2338 18.6392 20.4612 17.5861C20.868 15.7028 20.7995 14.2551 20.7338 13.129C20.7002 12.3515 20.6766 11.7525 20.7845 11.2777L20.7892 11.2571L20.7925 11.2362C20.7915 11.242 20.7917 11.2417 20.7951 11.2337C20.8027 11.2155 20.827 11.1579 20.8936 11.0426C20.9504 10.9442 21.0155 10.8404 21.0924 10.7178C21.1344 10.6507 21.18 10.5781 21.2296 10.4975L21.2883 10.4021C21.683 9.76063 22.249 8.84071 22.486 7.77134C22.7439 6.60779 22.6118 5.28211 21.5873 3.92688ZM9.3358 3.49481L9.52972 3.52474C10.208 3.68549 11.4303 3.80522 12.0179 3.83545L12.0333 3.83624H12.4558L12.4731 3.83524C13.0102 3.80415 13.9707 3.6832 14.6041 3.52414L14.7957 3.49456L14.8205 3.48856C15.5039 3.3228 16.3962 3.11788 17.3458 3.24112C18.2642 3.36032 19.2672 3.79159 20.1705 4.97477C20.8052 5.87345 20.8605 6.66839 20.6876 7.38874C20.5042 8.15319 20.0617 8.85047 19.6298 9.52725C19.3519 9.95627 19.0597 10.4348 18.9655 10.8588C18.7799 11.6211 18.8223 12.3977 18.8865 13.2012C18.9505 14.2694 19.0096 15.551 18.6402 17.176L18.6384 17.1842C18.4451 18.0932 18.0651 18.8996 17.6324 19.5229C17.1907 20.1591 16.7295 20.5548 16.4078 20.7038C16.2909 20.7579 16.2067 20.7775 16.1538 20.7817C16.1285 20.7837 16.113 20.782 16.1054 20.7806C16.1015 20.7799 16.0992 20.7792 16.0981 20.7788L16.0962 20.7781L16.0786 20.7688L16.0605 20.7606C15.8352 20.6599 15.7018 20.4638 15.6331 20.114C15.5658 19.7711 15.5828 19.3893 15.5995 19.0139L15.6038 18.9157V18.572C15.6038 16.64 15.2349 15.0705 14.47 13.8884C14.033 13.1979 13.5542 12.7747 13.089 12.5279C12.6232 12.2807 12.2054 12.2286 11.9188 12.2286C11.6362 12.2286 11.2508 12.2859 10.8182 12.5412C10.3933 12.7921 9.95686 13.2139 9.53 13.8885C8.76467 15.0713 8.39627 16.6712 8.39627 18.572L8.39626 18.5834C8.39616 18.6614 8.39595 18.8151 8.43179 18.9853L8.43306 19.0139C8.44975 19.3893 8.46672 19.7711 8.39939 20.114C8.33072 20.4638 8.19736 20.6599 7.97205 20.7606L7.95388 20.7688L7.9363 20.7781L7.93445 20.7788C7.93333 20.7792 7.93102 20.7799 7.92717 20.7806C7.9195 20.782 7.90404 20.7837 7.87877 20.7817C7.82584 20.7775 7.74167 20.7579 7.62473 20.7037L7.61749 20.7005C7.28475 20.5518 6.82605 20.1593 6.38934 19.5249C5.96138 18.9031 5.58817 18.0963 5.39418 17.1842L5.39232 17.1761C5.02219 15.5481 5.08235 14.2647 5.14651 13.1953L5.15109 13.0814C5.18163 12.3261 5.21134 11.5915 5.07138 10.8787L5.06899 10.8677C5.01841 10.6335 4.91304 10.4085 4.80346 10.2056C4.70651 10.026 4.58663 9.8291 4.46344 9.62669L4.41093 9.5401L4.4038 9.52891C3.97105 8.85076 3.53072 8.15645 3.35885 7.39641C3.19745 6.68271 3.26944 5.8875 3.95449 4.98128L3.95533 4.98017C4.86121 3.77601 5.85791 3.34571 6.77019 3.23007C7.71349 3.11051 8.60149 3.32086 9.30894 3.48844L9.3358 3.49481Z"
    fill="#2D3748" />
</svg>
